<svg width="449" height="168" viewBox="0 0 449 168" fill="none" xmlns="http://www.w3.org/2000/svg">
<rect width="449" height="168" fill="white"/>
<path d="M226.34 59.0566C226.34 63.7324 225.303 67.793 223.229 71.2383C221.154 74.6836 218.201 77.3555 214.369 79.2539C210.572 81.1172 206.037 82.0488 200.764 82.0488H178.932V111H168.859V36.6973H200.131C208.463 36.6973 214.914 38.6484 219.484 42.5508C224.055 46.4531 226.34 51.9551 226.34 59.0566ZM216.215 59.1621C216.215 49.5645 210.449 44.7656 198.918 44.7656H178.932V74.0859H199.34C204.965 74.0859 209.184 72.8555 211.996 70.3945C214.809 67.8984 216.215 64.1543 216.215 59.1621ZM250.967 76.5645V111H240.895V36.6973H250.967V68.127H291.15V36.6973H301.223V111H291.15V76.5645H250.967ZM330.121 36.6973V111H320.049V36.6973H330.121ZM395.09 72.3457C395.09 85.1074 392.752 94.916 388.076 101.771C383.436 108.627 376.809 112.055 368.195 112.055C362.395 112.055 357.736 110.842 354.221 108.416C350.74 105.955 348.244 102 346.732 96.5508L355.803 95.127C357.701 101.314 361.885 104.408 368.354 104.408C373.803 104.408 378.021 101.877 381.01 96.8145C383.998 91.752 385.562 84.5273 385.703 75.1406C384.297 78.3047 381.889 80.8535 378.479 82.7871C375.068 84.6855 371.324 85.6348 367.246 85.6348C362.816 85.6348 358.949 84.5977 355.645 82.5234C352.34 80.4492 349.773 77.5312 347.945 73.7695C346.117 70.0078 345.203 65.6133 345.203 60.5859C345.203 52.8164 347.383 46.7168 351.742 42.2871C356.102 37.8223 362.166 35.5898 369.936 35.5898C378.197 35.5898 384.455 38.6484 388.709 44.7656C392.963 50.8828 395.09 60.0762 395.09 72.3457ZM384.754 63.1699C384.754 57.1934 383.383 52.3945 380.641 48.7734C377.898 45.1172 374.225 43.2891 369.619 43.2891C365.049 43.2891 361.445 44.8535 358.809 47.9824C356.172 51.0762 354.854 55.2773 354.854 60.5859C354.854 66 356.172 70.2891 358.809 73.4531C361.445 76.582 365.014 78.1465 369.514 78.1465C372.256 78.1465 374.77 77.5137 377.055 76.248C379.375 74.9824 381.238 73.2246 382.645 70.9746C384.051 68.6895 384.754 66.0879 384.754 63.1699Z" fill="black"/>
<path d="M170.935 138V126.121H175.771C177.038 126.121 178.147 126.376 179.097 126.885C180.059 127.383 180.805 128.078 181.337 128.972C181.869 129.866 182.135 130.895 182.135 132.061C182.135 133.226 181.869 134.255 181.337 135.149C180.805 136.043 180.059 136.744 179.097 137.253C178.147 137.751 177.038 138 175.771 138H170.935ZM172.19 136.914H175.703C176.755 136.914 177.666 136.71 178.435 136.303C179.216 135.884 179.821 135.313 180.251 134.589C180.681 133.854 180.896 133.011 180.896 132.061C180.896 131.099 180.681 130.256 180.251 129.532C179.821 128.808 179.216 128.242 178.435 127.835C177.666 127.417 176.755 127.207 175.703 127.207H172.19V136.914ZM190.147 138.102C189.253 138.102 188.422 137.955 187.653 137.661C186.895 137.355 186.233 136.931 185.667 136.388C185.113 135.834 184.677 135.194 184.36 134.47C184.055 133.735 183.902 132.932 183.902 132.061C183.902 131.189 184.055 130.392 184.36 129.668C184.677 128.933 185.113 128.293 185.667 127.75C186.233 127.196 186.895 126.772 187.653 126.478C188.411 126.172 189.242 126.019 190.147 126.019C191.041 126.019 191.867 126.172 192.625 126.478C193.383 126.772 194.039 127.19 194.593 127.733C195.159 128.276 195.594 128.916 195.9 129.651C196.217 130.386 196.375 131.189 196.375 132.061C196.375 132.932 196.217 133.735 195.9 134.47C195.594 135.206 195.159 135.845 194.593 136.388C194.039 136.931 193.383 137.355 192.625 137.661C191.867 137.955 191.041 138.102 190.147 138.102ZM190.147 136.982C190.86 136.982 191.516 136.863 192.116 136.625C192.727 136.377 193.253 136.032 193.694 135.59C194.146 135.138 194.497 134.617 194.746 134.029C194.995 133.429 195.119 132.773 195.119 132.061C195.119 131.348 194.995 130.697 194.746 130.109C194.497 129.509 194.146 128.989 193.694 128.548C193.253 128.095 192.727 127.75 192.116 127.513C191.516 127.264 190.86 127.139 190.147 127.139C189.434 127.139 188.773 127.264 188.162 127.513C187.551 127.75 187.019 128.095 186.567 128.548C186.125 128.989 185.775 129.509 185.514 130.109C185.266 130.697 185.141 131.348 185.141 132.061C185.141 132.762 185.266 133.413 185.514 134.012C185.775 134.612 186.125 135.138 186.567 135.59C187.019 136.032 187.551 136.377 188.162 136.625C188.773 136.863 189.434 136.982 190.147 136.982ZM201.332 138V127.207H197.157V126.121H206.762V127.207H202.588V138H201.332ZM216.703 138.204C215.752 138.204 214.842 138.079 213.97 137.83C213.099 137.57 212.398 137.236 211.866 136.829L212.8 134.759C213.309 135.121 213.908 135.421 214.598 135.658C215.3 135.884 216.007 135.998 216.72 135.998C217.263 135.998 217.698 135.947 218.026 135.845C218.366 135.732 218.615 135.579 218.773 135.387C218.931 135.194 219.01 134.974 219.01 134.725C219.01 134.408 218.886 134.159 218.637 133.978C218.388 133.786 218.06 133.633 217.653 133.52C217.246 133.396 216.793 133.282 216.295 133.181C215.809 133.067 215.317 132.932 214.819 132.773C214.333 132.615 213.886 132.411 213.478 132.162C213.071 131.914 212.737 131.585 212.477 131.178C212.228 130.771 212.104 130.251 212.104 129.617C212.104 128.938 212.285 128.322 212.647 127.767C213.02 127.202 213.575 126.755 214.31 126.427C215.057 126.087 215.99 125.918 217.11 125.918C217.857 125.918 218.592 126.008 219.316 126.189C220.04 126.359 220.679 126.619 221.234 126.97L220.385 129.057C219.831 128.74 219.276 128.508 218.722 128.361C218.168 128.203 217.625 128.124 217.093 128.124C216.561 128.124 216.126 128.186 215.786 128.31C215.447 128.435 215.204 128.599 215.057 128.802C214.909 128.995 214.836 129.221 214.836 129.481C214.836 129.787 214.96 130.036 215.209 130.228C215.458 130.409 215.786 130.556 216.194 130.669C216.601 130.782 217.048 130.895 217.534 131.008C218.032 131.122 218.524 131.252 219.01 131.399C219.508 131.546 219.961 131.744 220.368 131.993C220.775 132.242 221.103 132.57 221.352 132.977C221.613 133.384 221.743 133.899 221.743 134.521C221.743 135.189 221.556 135.8 221.183 136.354C220.809 136.908 220.249 137.355 219.503 137.695C218.767 138.034 217.834 138.204 216.703 138.204ZM223.621 138V126.121H228.763C229.826 126.121 230.743 126.297 231.512 126.647C232.281 126.987 232.875 127.479 233.294 128.124C233.712 128.768 233.922 129.538 233.922 130.432C233.922 131.314 233.712 132.078 233.294 132.722C232.875 133.367 232.281 133.865 231.512 134.216C230.743 134.555 229.826 134.725 228.763 134.725H225.148L226.37 133.486V138H223.621ZM226.37 133.792L225.148 132.485H228.61C229.459 132.485 230.092 132.304 230.511 131.942C230.929 131.58 231.139 131.076 231.139 130.432C231.139 129.775 230.929 129.266 230.511 128.904C230.092 128.542 229.459 128.361 228.61 128.361H225.148L226.37 127.055V133.792ZM233.727 138L239.021 126.121H241.736L247.048 138H244.163L239.819 127.513H240.905L236.543 138H233.727ZM236.374 135.455L237.103 133.367H243.213L243.959 135.455H236.374ZM253.799 138.204C252.883 138.204 252.029 138.057 251.237 137.762C250.456 137.457 249.777 137.027 249.201 136.473C248.624 135.918 248.171 135.268 247.843 134.521C247.526 133.775 247.368 132.954 247.368 132.061C247.368 131.167 247.526 130.347 247.843 129.6C248.171 128.853 248.624 128.203 249.201 127.648C249.789 127.094 250.473 126.67 251.254 126.376C252.034 126.07 252.889 125.918 253.816 125.918C254.846 125.918 255.773 126.099 256.599 126.461C257.436 126.811 258.138 127.332 258.704 128.022L256.939 129.651C256.531 129.187 256.079 128.842 255.581 128.616C255.083 128.378 254.54 128.259 253.952 128.259C253.398 128.259 252.889 128.35 252.425 128.531C251.961 128.712 251.559 128.972 251.22 129.312C250.881 129.651 250.615 130.053 250.422 130.516C250.241 130.98 250.151 131.495 250.151 132.061C250.151 132.626 250.241 133.141 250.422 133.605C250.615 134.069 250.881 134.47 251.22 134.81C251.559 135.149 251.961 135.409 252.425 135.59C252.889 135.771 253.398 135.862 253.952 135.862C254.54 135.862 255.083 135.749 255.581 135.522C256.079 135.285 256.531 134.928 256.939 134.453L258.704 136.082C258.138 136.773 257.436 137.299 256.599 137.661C255.773 138.023 254.84 138.204 253.799 138.204ZM263.088 130.907H268.807V133.045H263.088V130.907ZM263.292 135.794H269.758V138H260.56V126.121H269.537V128.327H263.292V135.794Z" fill="black"/>
<path d="M88.7783 31C94.8641 31 100.71 32.0305 106.149 33.9258C90.6041 36.4122 78.7256 49.8833 78.7256 66.1299C78.7258 84.1429 93.3277 98.7449 111.34 98.7451C124.803 98.7451 136.358 90.5872 141.338 78.9453C141.482 80.537 141.558 82.149 141.558 83.7783C141.558 112.927 117.927 136.558 88.7783 136.558C84.1945 136.558 79.7473 135.972 75.5068 134.874C83.3088 132.09 88.8935 124.638 88.8936 115.88C88.8936 104.744 79.8654 95.7168 68.7295 95.7168C57.5937 95.7169 48.5664 104.744 48.5664 115.88C48.5664 116.633 48.609 117.376 48.6895 118.107C40.7793 108.878 36 96.8865 36 83.7783C36.0002 54.6298 59.6298 31.0002 88.7783 31Z" fill="black"/>
</svg>
