<svg width="106" height="106" viewBox="0 0 106 106" fill="none" xmlns="http://www.w3.org/2000/svg">
<path d="M52.7783 0C58.8641 0 64.7096 1.03054 70.1494 2.92578C54.6041 5.41218 42.7256 18.8833 42.7256 35.1299C42.7258 53.1429 57.3277 67.7449 75.3398 67.7451C88.8025 67.7451 100.358 59.5872 105.338 47.9453C105.482 49.537 105.558 51.149 105.558 52.7783C105.558 81.9272 81.9272 105.558 52.7783 105.558C48.1945 105.558 43.7473 104.972 39.5068 103.874C47.3088 101.09 52.8935 93.6378 52.8936 84.8799C52.8936 73.7443 43.8654 64.7168 32.7295 64.7168C21.5937 64.7169 12.5664 73.7444 12.5664 84.8799C12.5664 85.6328 12.609 86.3759 12.6895 87.1074C4.77925 77.8785 0 65.8865 0 52.7783C0.000239146 23.6298 23.6298 0.000239177 52.7783 0Z" fill="white"/>
</svg>
