<svg width="449" height="168" viewBox="0 0 449 168" fill="none" xmlns="http://www.w3.org/2000/svg">
<rect width="449" height="168" fill="black"/>
<path d="M223.34 59.0566C223.34 63.7324 222.303 67.793 220.229 71.2383C218.154 74.6836 215.201 77.3555 211.369 79.2539C207.572 81.1172 203.037 82.0488 197.764 82.0488H175.932V111H165.859V36.6973H197.131C205.463 36.6973 211.914 38.6484 216.484 42.5508C221.055 46.4531 223.34 51.9551 223.34 59.0566ZM213.215 59.1621C213.215 49.5645 207.449 44.7656 195.918 44.7656H175.932V74.0859H196.34C201.965 74.0859 206.184 72.8555 208.996 70.3945C211.809 67.8984 213.215 64.1543 213.215 59.1621ZM247.967 76.5645V111H237.895V36.6973H247.967V68.127H288.15V36.6973H298.223V111H288.15V76.5645H247.967ZM327.121 36.6973V111H317.049V36.6973H327.121ZM392.09 72.3457C392.09 85.1074 389.752 94.916 385.076 101.771C380.436 108.627 373.809 112.055 365.195 112.055C359.395 112.055 354.736 110.842 351.221 108.416C347.74 105.955 345.244 102 343.732 96.5508L352.803 95.127C354.701 101.314 358.885 104.408 365.354 104.408C370.803 104.408 375.021 101.877 378.01 96.8145C380.998 91.752 382.562 84.5273 382.703 75.1406C381.297 78.3047 378.889 80.8535 375.479 82.7871C372.068 84.6855 368.324 85.6348 364.246 85.6348C359.816 85.6348 355.949 84.5977 352.645 82.5234C349.34 80.4492 346.773 77.5312 344.945 73.7695C343.117 70.0078 342.203 65.6133 342.203 60.5859C342.203 52.8164 344.383 46.7168 348.742 42.2871C353.102 37.8223 359.166 35.5898 366.936 35.5898C375.197 35.5898 381.455 38.6484 385.709 44.7656C389.963 50.8828 392.09 60.0762 392.09 72.3457ZM381.754 63.1699C381.754 57.1934 380.383 52.3945 377.641 48.7734C374.898 45.1172 371.225 43.2891 366.619 43.2891C362.049 43.2891 358.445 44.8535 355.809 47.9824C353.172 51.0762 351.854 55.2773 351.854 60.5859C351.854 66 353.172 70.2891 355.809 73.4531C358.445 76.582 362.014 78.1465 366.514 78.1465C369.256 78.1465 371.77 77.5137 374.055 76.248C376.375 74.9824 378.238 73.2246 379.645 70.9746C381.051 68.6895 381.754 66.0879 381.754 63.1699Z" fill="white"/>
<path d="M167.935 138V126.121H172.771C174.038 126.121 175.147 126.376 176.097 126.885C177.059 127.383 177.805 128.078 178.337 128.972C178.869 129.866 179.135 130.895 179.135 132.061C179.135 133.226 178.869 134.255 178.337 135.149C177.805 136.043 177.059 136.744 176.097 137.253C175.147 137.751 174.038 138 172.771 138H167.935ZM169.19 136.914H172.703C173.755 136.914 174.666 136.71 175.435 136.303C176.216 135.884 176.821 135.313 177.251 134.589C177.681 133.854 177.896 133.011 177.896 132.061C177.896 131.099 177.681 130.256 177.251 129.532C176.821 128.808 176.216 128.242 175.435 127.835C174.666 127.417 173.755 127.207 172.703 127.207H169.19V136.914ZM187.147 138.102C186.253 138.102 185.422 137.955 184.653 137.661C183.895 137.355 183.233 136.931 182.667 136.388C182.113 135.834 181.677 135.194 181.36 134.47C181.055 133.735 180.902 132.932 180.902 132.061C180.902 131.189 181.055 130.392 181.36 129.668C181.677 128.933 182.113 128.293 182.667 127.75C183.233 127.196 183.895 126.772 184.653 126.478C185.411 126.172 186.242 126.019 187.147 126.019C188.041 126.019 188.867 126.172 189.625 126.478C190.383 126.772 191.039 127.19 191.593 127.733C192.159 128.276 192.594 128.916 192.9 129.651C193.217 130.386 193.375 131.189 193.375 132.061C193.375 132.932 193.217 133.735 192.9 134.47C192.594 135.206 192.159 135.845 191.593 136.388C191.039 136.931 190.383 137.355 189.625 137.661C188.867 137.955 188.041 138.102 187.147 138.102ZM187.147 136.982C187.86 136.982 188.516 136.863 189.116 136.625C189.727 136.377 190.253 136.032 190.694 135.59C191.146 135.138 191.497 134.617 191.746 134.029C191.995 133.429 192.119 132.773 192.119 132.061C192.119 131.348 191.995 130.697 191.746 130.109C191.497 129.509 191.146 128.989 190.694 128.548C190.253 128.095 189.727 127.75 189.116 127.513C188.516 127.264 187.86 127.139 187.147 127.139C186.434 127.139 185.773 127.264 185.162 127.513C184.551 127.75 184.019 128.095 183.567 128.548C183.125 128.989 182.775 129.509 182.514 130.109C182.266 130.697 182.141 131.348 182.141 132.061C182.141 132.762 182.266 133.413 182.514 134.012C182.775 134.612 183.125 135.138 183.567 135.59C184.019 136.032 184.551 136.377 185.162 136.625C185.773 136.863 186.434 136.982 187.147 136.982ZM198.332 138V127.207H194.157V126.121H203.762V127.207H199.588V138H198.332ZM213.703 138.204C212.752 138.204 211.842 138.079 210.97 137.83C210.099 137.57 209.398 137.236 208.866 136.829L209.8 134.759C210.309 135.121 210.908 135.421 211.598 135.658C212.3 135.884 213.007 135.998 213.72 135.998C214.263 135.998 214.698 135.947 215.026 135.845C215.366 135.732 215.615 135.579 215.773 135.387C215.931 135.194 216.01 134.974 216.01 134.725C216.01 134.408 215.886 134.159 215.637 133.978C215.388 133.786 215.06 133.633 214.653 133.52C214.246 133.396 213.793 133.282 213.295 133.181C212.809 133.067 212.317 132.932 211.819 132.773C211.333 132.615 210.886 132.411 210.478 132.162C210.071 131.914 209.737 131.585 209.477 131.178C209.228 130.771 209.104 130.251 209.104 129.617C209.104 128.938 209.285 128.322 209.647 127.767C210.02 127.202 210.575 126.755 211.31 126.427C212.057 126.087 212.99 125.918 214.11 125.918C214.857 125.918 215.592 126.008 216.316 126.189C217.04 126.359 217.679 126.619 218.234 126.97L217.385 129.057C216.831 128.74 216.276 128.508 215.722 128.361C215.168 128.203 214.625 128.124 214.093 128.124C213.561 128.124 213.126 128.186 212.786 128.31C212.447 128.435 212.204 128.599 212.057 128.802C211.909 128.995 211.836 129.221 211.836 129.481C211.836 129.787 211.96 130.036 212.209 130.228C212.458 130.409 212.786 130.556 213.194 130.669C213.601 130.782 214.048 130.895 214.534 131.008C215.032 131.122 215.524 131.252 216.01 131.399C216.508 131.546 216.961 131.744 217.368 131.993C217.775 132.242 218.103 132.57 218.352 132.977C218.613 133.384 218.743 133.899 218.743 134.521C218.743 135.189 218.556 135.8 218.183 136.354C217.809 136.908 217.249 137.355 216.503 137.695C215.767 138.034 214.834 138.204 213.703 138.204ZM220.621 138V126.121H225.763C226.826 126.121 227.743 126.297 228.512 126.647C229.281 126.987 229.875 127.479 230.294 128.124C230.712 128.768 230.922 129.538 230.922 130.432C230.922 131.314 230.712 132.078 230.294 132.722C229.875 133.367 229.281 133.865 228.512 134.216C227.743 134.555 226.826 134.725 225.763 134.725H222.148L223.37 133.486V138H220.621ZM223.37 133.792L222.148 132.485H225.61C226.459 132.485 227.092 132.304 227.511 131.942C227.929 131.58 228.139 131.076 228.139 130.432C228.139 129.775 227.929 129.266 227.511 128.904C227.092 128.542 226.459 128.361 225.61 128.361H222.148L223.37 127.055V133.792ZM230.727 138L236.021 126.121H238.736L244.048 138H241.163L236.819 127.513H237.905L233.543 138H230.727ZM233.374 135.455L234.103 133.367H240.213L240.959 135.455H233.374ZM250.799 138.204C249.883 138.204 249.029 138.057 248.237 137.762C247.456 137.457 246.777 137.027 246.201 136.473C245.624 135.918 245.171 135.268 244.843 134.521C244.526 133.775 244.368 132.954 244.368 132.061C244.368 131.167 244.526 130.347 244.843 129.6C245.171 128.853 245.624 128.203 246.201 127.648C246.789 127.094 247.473 126.67 248.254 126.376C249.034 126.07 249.889 125.918 250.816 125.918C251.846 125.918 252.773 126.099 253.599 126.461C254.436 126.811 255.138 127.332 255.704 128.022L253.939 129.651C253.531 129.187 253.079 128.842 252.581 128.616C252.083 128.378 251.54 128.259 250.952 128.259C250.398 128.259 249.889 128.35 249.425 128.531C248.961 128.712 248.559 128.972 248.22 129.312C247.881 129.651 247.615 130.053 247.422 130.516C247.241 130.98 247.151 131.495 247.151 132.061C247.151 132.626 247.241 133.141 247.422 133.605C247.615 134.069 247.881 134.47 248.22 134.81C248.559 135.149 248.961 135.409 249.425 135.59C249.889 135.771 250.398 135.862 250.952 135.862C251.54 135.862 252.083 135.749 252.581 135.522C253.079 135.285 253.531 134.928 253.939 134.453L255.704 136.082C255.138 136.773 254.436 137.299 253.599 137.661C252.773 138.023 251.84 138.204 250.799 138.204ZM260.088 130.907H265.807V133.045H260.088V130.907ZM260.292 135.794H266.758V138H257.56V126.121H266.537V128.327H260.292V135.794Z" fill="white"/>
<path d="M92.7783 31C98.8641 31 104.71 32.0305 110.149 33.9258C94.6041 36.4122 82.7256 49.8833 82.7256 66.1299C82.7258 84.1429 97.3277 98.7449 115.34 98.7451C128.803 98.7451 140.358 90.5872 145.338 78.9453C145.482 80.537 145.558 82.149 145.558 83.7783C145.558 112.927 121.927 136.558 92.7783 136.558C88.1945 136.558 83.7473 135.972 79.5068 134.874C87.3088 132.09 92.8935 124.638 92.8936 115.88C92.8936 104.744 83.8654 95.7168 72.7295 95.7168C61.5937 95.7169 52.5664 104.744 52.5664 115.88C52.5664 116.633 52.609 117.376 52.6895 118.107C44.7793 108.878 40 96.8865 40 83.7783C40.0002 54.6298 63.6298 31.0002 92.7783 31Z" fill="white"/>
</svg>
