<svg width="449" height="168" viewBox="0 0 449 168" fill="none" xmlns="http://www.w3.org/2000/svg">
<rect width="449" height="168" fill="white"/>
<path d="M166.534 116V29.6H182.572C187.972 29.6 191.878 30.68 194.29 32.84C196.738 35 198.034 38.582 198.178 43.586C198.358 48.374 198.448 52.676 198.448 56.492C198.448 60.308 198.358 64.232 198.178 68.264C197.998 73.232 196.684 76.796 194.236 78.956C191.788 81.116 187.864 82.196 182.464 82.196H175.12V116H166.534ZM175.12 74.474H182.464C185.092 74.474 186.91 74.024 187.918 73.124C188.962 72.224 189.538 70.694 189.646 68.534C189.79 65.762 189.88 63.098 189.916 60.542C189.952 57.95 189.952 55.268 189.916 52.496C189.88 49.688 189.79 46.61 189.646 43.262C189.574 41.066 189.016 39.536 187.972 38.672C186.928 37.772 185.128 37.322 182.572 37.322H175.12V74.474ZM208.405 116V29.6H216.991V68.696H232.921V29.6H241.507V116H232.921V76.418H216.991V116H208.405ZM254.6 116V29.6H263.186V116H254.6ZM291.99 116.918C286.23 116.918 282 115.73 279.3 113.354C276.636 110.942 275.268 107 275.196 101.528C275.196 100.556 275.178 99.26 275.142 97.64C275.142 96.02 275.142 94.364 275.142 92.672C275.178 90.98 275.214 89.558 275.25 88.406H283.943C283.908 90.674 283.872 93.086 283.836 95.642C283.8 98.198 283.818 100.538 283.89 102.662C283.962 105.11 284.646 106.892 285.942 108.008C287.274 109.088 289.254 109.628 291.882 109.628C294.294 109.628 296.166 109.106 297.498 108.062C298.83 106.982 299.55 105.218 299.658 102.77C299.766 99.314 299.838 95.444 299.874 91.16C299.946 86.84 300 82.34 300.036 77.66H298.254C297.462 79.028 296.13 80.18 294.258 81.116C292.386 82.052 290.262 82.52 287.886 82.52C285.294 82.52 282.972 82.034 280.92 81.062C278.868 80.09 277.248 78.542 276.06 76.418C274.908 74.294 274.296 71.54 274.224 68.156C274.188 66.212 274.152 64.124 274.116 61.892C274.116 59.624 274.116 57.374 274.116 55.142C274.116 52.91 274.116 50.84 274.116 48.932C274.152 47.024 274.188 45.458 274.224 44.234C274.476 38.762 275.97 34.838 278.706 32.462C281.478 30.05 285.78 28.844 291.612 28.844C297.516 28.844 301.728 30.068 304.248 32.516C306.768 34.928 308.1 38.834 308.244 44.234C308.388 51.398 308.478 58.022 308.514 64.106C308.55 70.154 308.55 76.184 308.514 82.196C308.478 88.172 308.388 94.616 308.244 101.528C308.172 107 306.804 110.942 304.14 113.354C301.512 115.73 297.462 116.918 291.99 116.918ZM290.91 75.23C293.754 75.23 295.932 74.672 297.443 73.556C298.992 72.44 299.838 70.892 299.982 68.912C299.982 64.34 299.946 59.84 299.874 55.412C299.838 50.948 299.73 46.718 299.55 42.722C299.514 40.382 298.776 38.69 297.336 37.646C295.932 36.566 294.006 36.026 291.558 36.026C288.75 36.026 286.626 36.566 285.186 37.646C283.782 38.726 283.044 40.436 282.972 42.776C282.972 43.748 282.954 45.404 282.918 47.744C282.882 50.048 282.846 52.586 282.81 55.358C282.81 58.094 282.81 60.65 282.81 63.026C282.81 65.402 282.828 67.166 282.864 68.318C282.936 70.73 283.692 72.494 285.132 73.61C286.608 74.69 288.534 75.23 290.91 75.23Z" fill="black"/>
<path d="M170.935 138V126.121H175.771C177.038 126.121 178.147 126.376 179.097 126.885C180.059 127.383 180.805 128.078 181.337 128.972C181.869 129.866 182.135 130.895 182.135 132.061C182.135 133.226 181.869 134.255 181.337 135.149C180.805 136.043 180.059 136.744 179.097 137.253C178.147 137.751 177.038 138 175.771 138H170.935ZM172.19 136.914H175.703C176.755 136.914 177.666 136.71 178.435 136.303C179.216 135.884 179.821 135.313 180.251 134.589C180.681 133.854 180.896 133.011 180.896 132.061C180.896 131.099 180.681 130.256 180.251 129.532C179.821 128.808 179.216 128.242 178.435 127.835C177.666 127.417 176.755 127.207 175.703 127.207H172.19V136.914ZM190.147 138.102C189.253 138.102 188.422 137.955 187.653 137.661C186.895 137.355 186.233 136.931 185.667 136.388C185.113 135.834 184.677 135.194 184.36 134.47C184.055 133.735 183.902 132.932 183.902 132.061C183.902 131.189 184.055 130.392 184.36 129.668C184.677 128.933 185.113 128.293 185.667 127.75C186.233 127.196 186.895 126.772 187.653 126.478C188.411 126.172 189.242 126.019 190.147 126.019C191.041 126.019 191.867 126.172 192.625 126.478C193.383 126.772 194.039 127.19 194.593 127.733C195.159 128.276 195.594 128.916 195.9 129.651C196.217 130.386 196.375 131.189 196.375 132.061C196.375 132.932 196.217 133.735 195.9 134.47C195.594 135.206 195.159 135.845 194.593 136.388C194.039 136.931 193.383 137.355 192.625 137.661C191.867 137.955 191.041 138.102 190.147 138.102ZM190.147 136.982C190.86 136.982 191.516 136.863 192.116 136.625C192.727 136.377 193.253 136.032 193.694 135.59C194.146 135.138 194.497 134.617 194.746 134.029C194.995 133.429 195.119 132.773 195.119 132.061C195.119 131.348 194.995 130.697 194.746 130.109C194.497 129.509 194.146 128.989 193.694 128.548C193.253 128.095 192.727 127.75 192.116 127.513C191.516 127.264 190.86 127.139 190.147 127.139C189.434 127.139 188.773 127.264 188.162 127.513C187.551 127.75 187.019 128.095 186.567 128.548C186.125 128.989 185.775 129.509 185.514 130.109C185.266 130.697 185.141 131.348 185.141 132.061C185.141 132.762 185.266 133.413 185.514 134.012C185.775 134.612 186.125 135.138 186.567 135.59C187.019 136.032 187.551 136.377 188.162 136.625C188.773 136.863 189.434 136.982 190.147 136.982ZM201.332 138V127.207H197.157V126.121H206.762V127.207H202.588V138H201.332ZM216.703 138.204C215.752 138.204 214.842 138.079 213.97 137.83C213.099 137.57 212.398 137.236 211.866 136.829L212.8 134.759C213.309 135.121 213.908 135.421 214.598 135.658C215.3 135.884 216.007 135.998 216.72 135.998C217.263 135.998 217.698 135.947 218.026 135.845C218.366 135.732 218.615 135.579 218.773 135.387C218.931 135.194 219.01 134.974 219.01 134.725C219.01 134.408 218.886 134.159 218.637 133.978C218.388 133.786 218.06 133.633 217.653 133.52C217.246 133.396 216.793 133.282 216.295 133.181C215.809 133.067 215.317 132.932 214.819 132.773C214.333 132.615 213.886 132.411 213.478 132.162C213.071 131.914 212.737 131.585 212.477 131.178C212.228 130.771 212.104 130.251 212.104 129.617C212.104 128.938 212.285 128.322 212.647 127.767C213.02 127.202 213.575 126.755 214.31 126.427C215.057 126.087 215.99 125.918 217.11 125.918C217.857 125.918 218.592 126.008 219.316 126.189C220.04 126.359 220.679 126.619 221.234 126.97L220.385 129.057C219.831 128.74 219.276 128.508 218.722 128.361C218.168 128.203 217.625 128.124 217.093 128.124C216.561 128.124 216.126 128.186 215.786 128.31C215.447 128.435 215.204 128.599 215.057 128.802C214.909 128.995 214.836 129.221 214.836 129.481C214.836 129.787 214.96 130.036 215.209 130.228C215.458 130.409 215.786 130.556 216.194 130.669C216.601 130.782 217.048 130.895 217.534 131.008C218.032 131.122 218.524 131.252 219.01 131.399C219.508 131.546 219.961 131.744 220.368 131.993C220.775 132.242 221.103 132.57 221.352 132.977C221.613 133.384 221.743 133.899 221.743 134.521C221.743 135.189 221.556 135.8 221.183 136.354C220.809 136.908 220.249 137.355 219.503 137.695C218.767 138.034 217.834 138.204 216.703 138.204ZM223.621 138V126.121H228.763C229.826 126.121 230.743 126.297 231.512 126.647C232.281 126.987 232.875 127.479 233.294 128.124C233.712 128.768 233.922 129.538 233.922 130.432C233.922 131.314 233.712 132.078 233.294 132.722C232.875 133.367 232.281 133.865 231.512 134.216C230.743 134.555 229.826 134.725 228.763 134.725H225.148L226.37 133.486V138H223.621ZM226.37 133.792L225.148 132.485H228.61C229.459 132.485 230.092 132.304 230.511 131.942C230.929 131.58 231.139 131.076 231.139 130.432C231.139 129.775 230.929 129.266 230.511 128.904C230.092 128.542 229.459 128.361 228.61 128.361H225.148L226.37 127.055V133.792ZM233.727 138L239.021 126.121H241.736L247.048 138H244.163L239.819 127.513H240.905L236.543 138H233.727ZM236.374 135.455L237.103 133.367H243.213L243.959 135.455H236.374ZM253.799 138.204C252.883 138.204 252.029 138.057 251.237 137.762C250.456 137.457 249.777 137.027 249.201 136.473C248.624 135.918 248.171 135.268 247.843 134.521C247.526 133.775 247.368 132.954 247.368 132.061C247.368 131.167 247.526 130.347 247.843 129.6C248.171 128.853 248.624 128.203 249.201 127.648C249.789 127.094 250.473 126.67 251.254 126.376C252.034 126.07 252.889 125.918 253.816 125.918C254.846 125.918 255.773 126.099 256.599 126.461C257.436 126.811 258.138 127.332 258.704 128.022L256.939 129.651C256.531 129.187 256.079 128.842 255.581 128.616C255.083 128.378 254.54 128.259 253.952 128.259C253.398 128.259 252.889 128.35 252.425 128.531C251.961 128.712 251.559 128.972 251.22 129.312C250.881 129.651 250.615 130.053 250.422 130.516C250.241 130.98 250.151 131.495 250.151 132.061C250.151 132.626 250.241 133.141 250.422 133.605C250.615 134.069 250.881 134.47 251.22 134.81C251.559 135.149 251.961 135.409 252.425 135.59C252.889 135.771 253.398 135.862 253.952 135.862C254.54 135.862 255.083 135.749 255.581 135.522C256.079 135.285 256.531 134.928 256.939 134.453L258.704 136.082C258.138 136.773 257.436 137.299 256.599 137.661C255.773 138.023 254.84 138.204 253.799 138.204ZM263.088 130.907H268.807V133.045H263.088V130.907ZM263.292 135.794H269.758V138H260.56V126.121H269.537V128.327H263.292V135.794Z" fill="black"/>
<path d="M88.7783 31C94.8641 31 100.71 32.0305 106.149 33.9258C90.6041 36.4122 78.7256 49.8833 78.7256 66.1299C78.7258 84.1429 93.3277 98.7449 111.34 98.7451C124.803 98.7451 136.358 90.5872 141.338 78.9453C141.482 80.537 141.558 82.149 141.558 83.7783C141.558 112.927 117.927 136.558 88.7783 136.558C84.1945 136.558 79.7473 135.972 75.5068 134.874C83.3088 132.09 88.8935 124.638 88.8936 115.88C88.8936 104.744 79.8654 95.7168 68.7295 95.7168C57.5937 95.7169 48.5664 104.744 48.5664 115.88C48.5664 116.633 48.609 117.376 48.6895 118.107C40.7793 108.878 36 96.8865 36 83.7783C36.0002 54.6298 59.6298 31.0002 88.7783 31Z" fill="black"/>
</svg>
