<svg width="224" height="42" viewBox="0 0 224 42" fill="none" xmlns="http://www.w3.org/2000/svg">
<path d="M1.435 41.799V40.364L4.715 39.79C4.74233 38.6693 4.756 37.5487 4.756 36.428C4.78333 35.3347 4.797 34.2413 4.797 33.148V21.422C4.797 20.3013 4.78333 19.372 4.756 18.634C4.756 17.896 4.72867 17.117 4.674 16.297L1.435 15.928V14.493L7.175 11.992L7.79 12.402L8.036 15.067C9.97667 13.017 12.0403 11.992 14.227 11.992C15.703 11.992 17.0287 12.402 18.204 13.222C19.3793 14.042 20.3087 15.2173 20.992 16.748C21.7027 18.2513 22.058 20.069 22.058 22.201C22.058 24.3057 21.689 26.137 20.951 27.695C20.213 29.2257 19.2017 30.4147 17.917 31.262C16.6597 32.1093 15.2247 32.533 13.612 32.533C12.6827 32.533 11.7533 32.3417 10.824 31.959C9.922 31.5763 9.03367 30.8793 8.159 29.868V33.107C8.159 34.2003 8.159 35.2937 8.159 36.387C8.18633 37.5077 8.21367 38.6283 8.241 39.749L11.972 40.364V41.799H1.435ZM13.243 14.329C12.6143 14.329 11.89 14.493 11.07 14.821C10.25 15.1217 9.32067 15.7093 8.282 16.584V28.105C9.04733 28.843 9.799 29.376 10.537 29.704C11.275 30.032 12.0267 30.196 12.792 30.196C14.3227 30.196 15.6347 29.581 16.728 28.351C17.8213 27.121 18.368 25.1803 18.368 22.529C18.368 19.905 17.8897 17.8823 16.933 16.461C15.9763 15.0397 14.7463 14.329 13.243 14.329ZM24.7329 32V30.524L27.8079 29.95C27.8353 28.9113 27.8489 27.7907 27.8489 26.588C27.8763 25.358 27.8899 24.292 27.8899 23.39V5.391L24.5279 4.981V3.546L30.8009 1.701L31.3749 2.029L31.2109 7.851V15.764C32.2223 14.6433 33.3976 13.7413 34.7369 13.058C36.0763 12.3473 37.4019 11.992 38.7139 11.992C40.4906 11.992 41.8026 12.5933 42.6499 13.796C43.5246 14.9713 43.9619 16.8983 43.9619 19.577V23.39C43.9619 24.3193 43.9619 25.3853 43.9619 26.588C43.9893 27.7907 44.0166 28.9113 44.0439 29.95L46.9139 30.524V32H37.4019V30.524L40.3949 29.991C40.4223 28.9523 40.4359 27.8317 40.4359 26.629C40.4633 25.399 40.4769 24.3193 40.4769 23.39V19.905C40.4769 18.019 40.2173 16.7207 39.6979 16.01C39.1786 15.2993 38.3176 14.944 37.1149 14.944C36.1036 14.944 35.1469 15.149 34.2449 15.559C33.3429 15.969 32.3726 16.6523 31.3339 17.609V23.39C31.3339 24.292 31.3339 25.358 31.3339 26.588C31.3613 27.7907 31.3886 28.9113 31.4159 29.95L34.2449 30.524V32H24.7329ZM49.562 32V30.524L52.637 29.95C52.6643 28.9113 52.678 27.7907 52.678 26.588C52.7053 25.358 52.719 24.292 52.719 23.39V21.463C52.719 20.3423 52.7053 19.413 52.678 18.675C52.678 17.9097 52.6506 17.117 52.596 16.297L49.316 15.928V14.493L55.63 11.992L56.245 12.402L56.122 17.978V23.39C56.122 24.292 56.122 25.358 56.122 26.588C56.1493 27.7907 56.1766 28.9113 56.204 29.95L59.074 30.524V32H49.562ZM54.4 7.482C53.6346 7.482 52.9786 7.236 52.432 6.744C51.9126 6.252 51.653 5.62333 51.653 4.858C51.653 4.06533 51.9126 3.43667 52.432 2.972C52.9786 2.48 53.6346 2.234 54.4 2.234C55.1653 2.234 55.8076 2.48 56.327 2.972C56.8736 3.43667 57.147 4.06533 57.147 4.858C57.147 5.62333 56.8736 6.252 56.327 6.744C55.8076 7.236 55.1653 7.482 54.4 7.482ZM65.1769 13.099C65.1769 15.1763 65.6962 16.6933 66.7349 17.65C67.8009 18.5793 69.0855 19.044 70.5889 19.044C72.3109 19.044 73.8005 18.4973 75.0579 17.404C75.0852 17.2127 75.0989 17.035 75.0989 16.871C75.0989 16.707 75.0989 16.5293 75.0989 16.338C75.0989 13.0033 74.6342 10.5843 73.7049 9.081C72.8029 7.57767 71.6002 6.826 70.0969 6.826C68.7575 6.826 67.5959 7.359 66.6119 8.425C65.6552 9.46367 65.1769 11.0217 65.1769 13.099ZM78.7889 15.641C78.7889 18.2377 78.2832 20.6977 77.2719 23.021C76.2605 25.317 74.6615 27.326 72.4749 29.048C70.2882 30.7427 67.4182 32 63.8649 32.82L63.4549 31.262C67.1722 30.032 69.9055 28.474 71.6549 26.588C73.4315 24.6747 74.5112 22.2967 74.8939 19.454C73.4999 20.8207 71.6959 21.504 69.4819 21.504C68.0332 21.504 66.6939 21.1897 65.4639 20.561C64.2612 19.905 63.3045 18.9757 62.5939 17.773C61.8832 16.5703 61.5279 15.1353 61.5279 13.468C61.5279 11.7733 61.8969 10.2973 62.6349 9.04C63.3729 7.75533 64.3979 6.75766 65.7099 6.047C67.0219 5.33633 68.5389 4.981 70.2609 4.981C72.9395 4.981 75.0305 5.95133 76.5339 7.892C78.0372 9.80533 78.7889 12.3883 78.7889 15.641ZM100.57 32.533C99.4221 32.533 98.3698 32.3963 97.4131 32.123C96.4565 31.877 95.4725 31.4943 94.4611 30.975L94.2971 26.465H96.5521L97.3311 30.032C98.2878 30.4693 99.3948 30.688 100.652 30.688C102.21 30.688 103.358 30.401 104.096 29.827C104.861 29.253 105.244 28.5013 105.244 27.572C105.244 26.6973 104.93 26.0003 104.301 25.481C103.672 24.9343 102.716 24.4423 101.431 24.005L99.5451 23.308C98.0418 22.7613 96.8391 22.0507 95.9371 21.176C95.0351 20.3013 94.5841 19.167 94.5841 17.773C94.5841 16.7617 94.8575 15.8187 95.4041 14.944C95.9508 14.0693 96.7571 13.3587 97.8231 12.812C98.8891 12.2653 100.187 11.992 101.718 11.992C102.839 11.992 103.85 12.1423 104.752 12.443C105.681 12.7163 106.583 13.1263 107.458 13.673L107.294 17.855H105.162L104.506 14.575C103.577 14.1103 102.634 13.878 101.677 13.878C100.42 13.878 99.4631 14.1377 98.8071 14.657C98.1785 15.149 97.8641 15.8187 97.8641 16.666C97.8641 17.568 98.1375 18.2513 98.6841 18.716C99.2581 19.1807 100.242 19.6727 101.636 20.192L102.907 20.643C104.957 21.4083 106.406 22.283 107.253 23.267C108.128 24.251 108.565 25.3853 108.565 26.67C108.565 27.7087 108.264 28.679 107.663 29.581C107.062 30.4557 106.173 31.1663 104.998 31.713C103.823 32.2597 102.347 32.533 100.57 32.533ZM111.182 41.799V40.364L114.462 39.79C114.489 38.6693 114.503 37.5487 114.503 36.428C114.53 35.3347 114.544 34.2413 114.544 33.148V21.422C114.544 20.3013 114.53 19.372 114.503 18.634C114.503 17.896 114.476 17.117 114.421 16.297L111.182 15.928V14.493L116.922 11.992L117.537 12.402L117.783 15.067C119.724 13.017 121.787 11.992 123.974 11.992C125.45 11.992 126.776 12.402 127.951 13.222C129.126 14.042 130.056 15.2173 130.739 16.748C131.45 18.2513 131.805 20.069 131.805 22.201C131.805 24.3057 131.436 26.137 130.698 27.695C129.96 29.2257 128.949 30.4147 127.664 31.262C126.407 32.1093 124.972 32.533 123.359 32.533C122.43 32.533 121.5 32.3417 120.571 31.959C119.669 31.5763 118.781 30.8793 117.906 29.868V33.107C117.906 34.2003 117.906 35.2937 117.906 36.387C117.933 37.5077 117.961 38.6283 117.988 39.749L121.719 40.364V41.799H111.182ZM122.99 14.329C122.361 14.329 121.637 14.493 120.817 14.821C119.997 15.1217 119.068 15.7093 118.029 16.584V28.105C118.794 28.843 119.546 29.376 120.284 29.704C121.022 30.032 121.774 30.196 122.539 30.196C124.07 30.196 125.382 29.581 126.475 28.351C127.568 27.121 128.115 25.1803 128.115 22.529C128.115 19.905 127.637 17.8823 126.68 16.461C125.723 15.0397 124.493 14.329 122.99 14.329ZM150.706 32.41C149.722 32.41 148.902 32.123 148.246 31.549C147.59 30.975 147.18 30.2097 147.016 29.253C145.896 30.3463 144.912 31.1663 144.064 31.713C143.217 32.2597 142.192 32.533 140.989 32.533C139.486 32.533 138.188 32.1093 137.094 31.262C136.028 30.3873 135.495 29.1027 135.495 27.408C135.495 26.6153 135.673 25.8773 136.028 25.194C136.411 24.5107 137.094 23.841 138.078 23.185C139.062 22.529 140.47 21.873 142.301 21.217C142.93 20.9983 143.654 20.766 144.474 20.52C145.294 20.274 146.114 20.0553 146.934 19.864V18.839C146.934 16.8437 146.634 15.518 146.032 14.862C145.431 14.206 144.447 13.878 143.08 13.878C142.78 13.878 142.438 13.8917 142.055 13.919C141.7 13.9463 141.304 14.0147 140.866 14.124L140.087 16.789C139.705 18.101 138.994 18.757 137.955 18.757C136.807 18.757 136.165 18.1967 136.028 17.076C136.411 15.518 137.313 14.288 138.734 13.386C140.183 12.4567 141.946 11.992 144.023 11.992C146.183 11.992 147.782 12.5387 148.82 13.632C149.859 14.698 150.378 16.5293 150.378 19.126V27.859C150.378 28.7337 150.515 29.3623 150.788 29.745C151.062 30.1003 151.417 30.278 151.854 30.278C152.21 30.278 152.51 30.196 152.756 30.032C153.002 29.868 153.235 29.6493 153.453 29.376L154.273 30.278C153.781 31.0707 153.235 31.631 152.633 31.959C152.059 32.2597 151.417 32.41 150.706 32.41ZM139.144 26.793C139.144 27.8863 139.459 28.6653 140.087 29.13C140.716 29.5947 141.495 29.827 142.424 29.827C142.834 29.827 143.217 29.7723 143.572 29.663C143.955 29.5537 144.406 29.3487 144.925 29.048C145.445 28.72 146.114 28.2553 146.934 27.654V21.381C146.224 21.5723 145.527 21.791 144.843 22.037C144.16 22.2557 143.6 22.447 143.162 22.611C141.987 23.0757 141.112 23.554 140.538 24.046C139.964 24.538 139.582 25.0163 139.39 25.481C139.226 25.9457 139.144 26.383 139.144 26.793ZM165.458 32.533C162.642 32.533 160.401 31.6173 158.734 29.786C157.066 27.9547 156.233 25.4673 156.233 22.324C156.233 20.1647 156.67 18.3197 157.545 16.789C158.447 15.231 159.622 14.042 161.071 13.222C162.519 12.402 164.064 11.992 165.704 11.992C166.934 11.992 168.068 12.2243 169.107 12.689C170.145 13.1537 171.006 13.796 171.69 14.616C172.373 15.4087 172.797 16.3107 172.961 17.322C172.769 18.3607 172.141 18.88 171.075 18.88C170.391 18.88 169.872 18.7023 169.517 18.347C169.189 17.9643 168.956 17.486 168.82 16.912L168.082 14.206C167.699 14.0693 167.316 13.9873 166.934 13.96C166.578 13.9053 166.223 13.878 165.868 13.878C164.118 13.878 162.67 14.5613 161.522 15.928C160.401 17.2947 159.841 19.29 159.841 21.914C159.841 24.4833 160.456 26.4513 161.686 27.818C162.916 29.1847 164.487 29.868 166.401 29.868C167.576 29.868 168.656 29.6083 169.64 29.089C170.624 28.5423 171.43 27.7633 172.059 26.752L173.084 27.285C172.51 28.9797 171.58 30.278 170.296 31.18C169.011 32.082 167.398 32.533 165.458 32.533ZM185.559 13.878C184.794 13.878 184.015 14.0967 183.222 14.534C182.457 14.9713 181.787 15.6683 181.213 16.625C180.667 17.5817 180.311 18.8527 180.147 20.438H187.609C188.593 20.438 189.236 20.233 189.536 19.823C189.864 19.413 190.028 18.9073 190.028 18.306C190.028 17.5133 189.823 16.789 189.413 16.133C189.031 15.4497 188.498 14.903 187.814 14.493C187.158 14.083 186.407 13.878 185.559 13.878ZM185.518 32.533C182.758 32.533 180.544 31.6447 178.876 29.868C177.209 28.064 176.375 25.5903 176.375 22.447C176.375 20.3423 176.799 18.511 177.646 16.953C178.521 15.395 179.669 14.1787 181.09 13.304C182.539 12.4293 184.111 11.992 185.805 11.992C187.227 11.992 188.511 12.3063 189.659 12.935C190.807 13.5637 191.723 14.4657 192.406 15.641C193.09 16.789 193.431 18.1967 193.431 19.864C193.431 20.3287 193.404 20.766 193.349 21.176C193.295 21.5587 193.226 21.8867 193.144 22.16H180.065C180.12 24.6747 180.749 26.588 181.951 27.9C183.154 29.212 184.739 29.868 186.707 29.868C188.019 29.868 189.113 29.6083 189.987 29.089C190.862 28.5423 191.668 27.8453 192.406 26.998L193.39 27.777C192.625 29.2257 191.586 30.3873 190.274 31.262C188.962 32.1093 187.377 32.533 185.518 32.533Z" fill="#16161D"/>
<path d="M86.9889 32.533C86.1689 32.533 85.4719 32.246 84.8979 31.672C84.3512 31.098 84.0779 30.4147 84.0779 29.622C84.0779 28.802 84.3512 28.105 84.8979 27.531C85.4719 26.957 86.1689 26.67 86.9889 26.67C87.8089 26.67 88.4922 26.957 89.0389 27.531C89.6129 28.105 89.8999 28.802 89.8999 29.622C89.8999 30.4147 89.6129 31.098 89.0389 31.672C88.4922 32.246 87.8089 32.533 86.9889 32.533Z" fill="#FF5C00"/>
</svg>
