<svg width="376" height="111" viewBox="0 0 376 111" fill="none" xmlns="http://www.w3.org/2000/svg">
<path d="M130.534 88V1.6H146.572C151.972 1.6 155.878 2.68 158.29 4.84C160.738 7 162.034 10.582 162.178 15.586C162.358 20.374 162.448 24.676 162.448 28.492C162.448 32.308 162.358 36.232 162.178 40.264C161.998 45.232 160.684 48.796 158.236 50.956C155.788 53.116 151.864 54.196 146.464 54.196H139.12V88H130.534ZM139.12 46.474H146.464C149.092 46.474 150.91 46.024 151.918 45.124C152.962 44.224 153.538 42.694 153.646 40.534C153.79 37.762 153.88 35.098 153.916 32.542C153.952 29.95 153.952 27.268 153.916 24.496C153.88 21.688 153.79 18.61 153.646 15.262C153.574 13.066 153.016 11.536 151.972 10.672C150.928 9.772 149.128 9.322 146.572 9.322H139.12V46.474ZM172.405 88V1.6H180.991V40.696H196.921V1.6H205.507V88H196.921V48.418H180.991V88H172.405ZM218.6 88V1.6H227.186V88H218.6ZM255.99 88.918C250.23 88.918 246 87.73 243.3 85.354C240.636 82.942 239.268 79 239.196 73.528C239.196 72.556 239.178 71.26 239.142 69.64C239.142 68.02 239.142 66.364 239.142 64.672C239.178 62.98 239.214 61.558 239.25 60.406H247.943C247.908 62.674 247.872 65.086 247.836 67.642C247.8 70.198 247.818 72.538 247.89 74.662C247.962 77.11 248.646 78.892 249.942 80.008C251.274 81.088 253.254 81.628 255.882 81.628C258.294 81.628 260.166 81.106 261.498 80.062C262.83 78.982 263.55 77.218 263.658 74.77C263.766 71.314 263.838 67.444 263.874 63.16C263.946 58.84 264 54.34 264.036 49.66H262.254C261.462 51.028 260.13 52.18 258.258 53.116C256.386 54.052 254.262 54.52 251.886 54.52C249.294 54.52 246.972 54.034 244.92 53.062C242.868 52.09 241.248 50.542 240.06 48.418C238.908 46.294 238.296 43.54 238.224 40.156C238.188 38.212 238.152 36.124 238.116 33.892C238.116 31.624 238.116 29.374 238.116 27.142C238.116 24.91 238.116 22.84 238.116 20.932C238.152 19.024 238.188 17.458 238.224 16.234C238.476 10.762 239.97 6.838 242.706 4.462C245.478 2.05 249.78 0.843996 255.612 0.843996C261.516 0.843996 265.728 2.06799 268.248 4.51599C270.768 6.92799 272.1 10.834 272.244 16.234C272.388 23.398 272.478 30.022 272.514 36.106C272.55 42.154 272.55 48.184 272.514 54.196C272.478 60.172 272.388 66.616 272.244 73.528C272.172 79 270.804 82.942 268.14 85.354C265.512 87.73 261.462 88.918 255.99 88.918ZM254.91 47.23C257.754 47.23 259.932 46.672 261.443 45.556C262.992 44.44 263.838 42.892 263.982 40.912C263.982 36.34 263.946 31.84 263.874 27.412C263.838 22.948 263.73 18.718 263.55 14.722C263.514 12.382 262.776 10.69 261.336 9.64599C259.932 8.566 258.006 8.026 255.558 8.026C252.75 8.026 250.626 8.566 249.186 9.64599C247.782 10.726 247.044 12.436 246.972 14.776C246.972 15.748 246.954 17.404 246.918 19.744C246.882 22.048 246.846 24.586 246.81 27.358C246.81 30.094 246.81 32.65 246.81 35.026C246.81 37.402 246.828 39.166 246.864 40.318C246.936 42.73 247.692 44.494 249.132 45.61C250.608 46.69 252.534 47.23 254.91 47.23Z" fill="black"/>
<path d="M134.935 110V98.1212H139.771C141.038 98.1212 142.147 98.3758 143.097 98.8848C144.059 99.3826 144.805 100.078 145.337 100.972C145.869 101.866 146.135 102.895 146.135 104.061C146.135 105.226 145.869 106.255 145.337 107.149C144.805 108.043 144.059 108.744 143.097 109.253C142.147 109.751 141.038 110 139.771 110H134.935ZM136.19 108.914H139.703C140.755 108.914 141.666 108.71 142.435 108.303C143.216 107.884 143.821 107.313 144.251 106.589C144.681 105.854 144.896 105.011 144.896 104.061C144.896 103.099 144.681 102.256 144.251 101.532C143.821 100.808 143.216 100.242 142.435 99.8352C141.666 99.4166 140.755 99.2073 139.703 99.2073H136.19V108.914ZM154.147 110.102C153.253 110.102 152.422 109.955 151.653 109.661C150.895 109.355 150.233 108.931 149.667 108.388C149.113 107.834 148.677 107.194 148.36 106.47C148.055 105.735 147.902 104.932 147.902 104.061C147.902 103.189 148.055 102.392 148.36 101.668C148.677 100.933 149.113 100.293 149.667 99.7503C150.233 99.196 150.895 98.7717 151.653 98.4776C152.411 98.1721 153.242 98.0194 154.147 98.0194C155.041 98.0194 155.867 98.1721 156.625 98.4776C157.383 98.7717 158.039 99.1903 158.593 99.7333C159.159 100.276 159.594 100.916 159.9 101.651C160.217 102.386 160.375 103.189 160.375 104.061C160.375 104.932 160.217 105.735 159.9 106.47C159.594 107.206 159.159 107.845 158.593 108.388C158.039 108.931 157.383 109.355 156.625 109.661C155.867 109.955 155.041 110.102 154.147 110.102ZM154.147 108.982C154.86 108.982 155.516 108.863 156.116 108.625C156.727 108.377 157.253 108.032 157.694 107.59C158.146 107.138 158.497 106.617 158.746 106.029C158.995 105.429 159.119 104.773 159.119 104.061C159.119 103.348 158.995 102.697 158.746 102.109C158.497 101.509 158.146 100.989 157.694 100.548C157.253 100.095 156.727 99.7503 156.116 99.5127C155.516 99.2638 154.86 99.1394 154.147 99.1394C153.434 99.1394 152.773 99.2638 152.162 99.5127C151.551 99.7503 151.019 100.095 150.567 100.548C150.125 100.989 149.775 101.509 149.514 102.109C149.266 102.697 149.141 103.348 149.141 104.061C149.141 104.762 149.266 105.413 149.514 106.012C149.775 106.612 150.125 107.138 150.567 107.59C151.019 108.032 151.551 108.377 152.162 108.625C152.773 108.863 153.434 108.982 154.147 108.982ZM165.332 110V99.2073H161.157V98.1212H170.762V99.2073H166.588V110H165.332ZM180.703 110.204C179.752 110.204 178.842 110.079 177.97 109.83C177.099 109.57 176.398 109.236 175.866 108.829L176.8 106.759C177.309 107.121 177.908 107.421 178.598 107.658C179.3 107.884 180.007 107.998 180.72 107.998C181.263 107.998 181.698 107.947 182.026 107.845C182.366 107.732 182.615 107.579 182.773 107.387C182.931 107.194 183.01 106.974 183.01 106.725C183.01 106.408 182.886 106.159 182.637 105.978C182.388 105.786 182.06 105.633 181.653 105.52C181.246 105.396 180.793 105.282 180.295 105.181C179.809 105.067 179.317 104.932 178.819 104.773C178.333 104.615 177.886 104.411 177.478 104.162C177.071 103.914 176.737 103.585 176.477 103.178C176.228 102.771 176.104 102.251 176.104 101.617C176.104 100.938 176.285 100.322 176.647 99.7673C177.02 99.2016 177.575 98.7547 178.31 98.4267C179.057 98.0873 179.99 97.9176 181.11 97.9176C181.857 97.9176 182.592 98.0081 183.316 98.1891C184.04 98.3588 184.679 98.619 185.234 98.9697L184.385 101.057C183.831 100.74 183.276 100.508 182.722 100.361C182.168 100.203 181.625 100.124 181.093 100.124C180.561 100.124 180.126 100.186 179.786 100.31C179.447 100.435 179.204 100.599 179.057 100.802C178.909 100.995 178.836 101.221 178.836 101.481C178.836 101.787 178.96 102.036 179.209 102.228C179.458 102.409 179.786 102.556 180.194 102.669C180.601 102.782 181.048 102.895 181.534 103.008C182.032 103.122 182.524 103.252 183.01 103.399C183.508 103.546 183.961 103.744 184.368 103.993C184.775 104.242 185.103 104.57 185.352 104.977C185.613 105.384 185.743 105.899 185.743 106.521C185.743 107.189 185.556 107.8 185.183 108.354C184.809 108.908 184.249 109.355 183.503 109.695C182.767 110.034 181.834 110.204 180.703 110.204ZM187.621 110V98.1212H192.763C193.826 98.1212 194.743 98.2966 195.512 98.6473C196.281 98.9867 196.875 99.4788 197.294 100.124C197.712 100.768 197.922 101.538 197.922 102.432C197.922 103.314 197.712 104.078 197.294 104.722C196.875 105.367 196.281 105.865 195.512 106.216C194.743 106.555 193.826 106.725 192.763 106.725H189.148L190.37 105.486V110H187.621ZM190.37 105.792L189.148 104.485H192.61C193.459 104.485 194.092 104.304 194.511 103.942C194.929 103.58 195.139 103.076 195.139 102.432C195.139 101.775 194.929 101.266 194.511 100.904C194.092 100.542 193.459 100.361 192.61 100.361H189.148L190.37 99.0545V105.792ZM197.727 110L203.021 98.1212H205.736L211.048 110H208.163L203.819 99.5127H204.905L200.543 110H197.727ZM200.374 107.455L201.103 105.367H207.213L207.959 107.455H200.374ZM217.799 110.204C216.883 110.204 216.029 110.057 215.237 109.762C214.456 109.457 213.777 109.027 213.201 108.473C212.624 107.918 212.171 107.268 211.843 106.521C211.526 105.775 211.368 104.954 211.368 104.061C211.368 103.167 211.526 102.347 211.843 101.6C212.171 100.853 212.624 100.203 213.201 99.6485C213.789 99.0941 214.473 98.6699 215.254 98.3758C216.034 98.0703 216.889 97.9176 217.816 97.9176C218.846 97.9176 219.773 98.0986 220.599 98.4606C221.436 98.8113 222.138 99.3317 222.704 100.022L220.939 101.651C220.531 101.187 220.079 100.842 219.581 100.616C219.083 100.378 218.54 100.259 217.952 100.259C217.398 100.259 216.889 100.35 216.425 100.531C215.961 100.712 215.559 100.972 215.22 101.312C214.881 101.651 214.615 102.053 214.422 102.516C214.241 102.98 214.151 103.495 214.151 104.061C214.151 104.626 214.241 105.141 214.422 105.605C214.615 106.069 214.881 106.47 215.22 106.81C215.559 107.149 215.961 107.409 216.425 107.59C216.889 107.771 217.398 107.862 217.952 107.862C218.54 107.862 219.083 107.749 219.581 107.522C220.079 107.285 220.531 106.928 220.939 106.453L222.704 108.082C222.138 108.773 221.436 109.299 220.599 109.661C219.773 110.023 218.84 110.204 217.799 110.204ZM227.088 102.907H232.807V105.045H227.088V102.907ZM227.292 107.794H233.758V110H224.56V98.1212H233.537V100.327H227.292V107.794Z" fill="black"/>
<path d="M52.7783 3C58.8641 3 64.7096 4.03054 70.1494 5.92578C54.6041 8.41218 42.7256 21.8833 42.7256 38.1299C42.7258 56.1429 57.3277 70.745 75.3398 70.7451C88.8025 70.7451 100.358 62.5872 105.338 50.9453C105.482 52.537 105.558 54.149 105.558 55.7783C105.558 84.9272 81.9272 108.558 52.7783 108.558C48.1945 108.558 43.7473 107.972 39.5068 106.874C47.3088 104.09 52.8935 96.6378 52.8936 87.8799C52.8936 76.7443 43.8654 67.7168 32.7295 67.7168C21.5937 67.717 12.5664 76.7444 12.5664 87.8799C12.5664 88.6328 12.609 89.3759 12.6895 90.1074C4.77925 80.8785 0 68.8865 0 55.7783C0.000239146 26.6298 23.6298 3.00024 52.7783 3Z" fill="black"/>
</svg>
