<svg width="369" height="108" viewBox="0 0 369 108" fill="none" xmlns="http://www.w3.org/2000/svg">
<path d="M183.34 28.0566C183.34 32.7324 182.303 36.793 180.229 40.2383C178.154 43.6836 175.201 46.3555 171.369 48.2539C167.572 50.1172 163.037 51.0488 157.764 51.0488H135.932V80H125.859V5.69727H157.131C165.463 5.69727 171.914 7.64844 176.484 11.5508C181.055 15.4531 183.34 20.9551 183.34 28.0566ZM173.215 28.1621C173.215 18.5645 167.449 13.7656 155.918 13.7656H135.932V43.0859H156.34C161.965 43.0859 166.184 41.8555 168.996 39.3945C171.809 36.8984 173.215 33.1543 173.215 28.1621ZM207.967 45.5645V80H197.895V5.69727H207.967V37.127H248.15V5.69727H258.223V80H248.15V45.5645H207.967ZM287.121 5.69727V80H277.049V5.69727H287.121ZM352.09 41.3457C352.09 54.1074 349.752 63.916 345.076 70.7715C340.436 77.627 333.809 81.0547 325.195 81.0547C319.395 81.0547 314.736 79.8418 311.221 77.416C307.74 74.9551 305.244 71 303.732 65.5508L312.803 64.127C314.701 70.3145 318.885 73.4082 325.354 73.4082C330.803 73.4082 335.021 70.877 338.01 65.8145C340.998 60.752 342.562 53.5273 342.703 44.1406C341.297 47.3047 338.889 49.8535 335.479 51.7871C332.068 53.6855 328.324 54.6348 324.246 54.6348C319.816 54.6348 315.949 53.5977 312.645 51.5234C309.34 49.4492 306.773 46.5312 304.945 42.7695C303.117 39.0078 302.203 34.6133 302.203 29.5859C302.203 21.8164 304.383 15.7168 308.742 11.2871C313.102 6.82227 319.166 4.58984 326.936 4.58984C335.197 4.58984 341.455 7.64844 345.709 13.7656C349.963 19.8828 352.09 29.0762 352.09 41.3457ZM341.754 32.1699C341.754 26.1934 340.383 21.3945 337.641 17.7734C334.898 14.1172 331.225 12.2891 326.619 12.2891C322.049 12.2891 318.445 13.8535 315.809 16.9824C313.172 20.0762 311.854 24.2773 311.854 29.5859C311.854 35 313.172 39.2891 315.809 42.4531C318.445 45.582 322.014 47.1465 326.514 47.1465C329.256 47.1465 331.77 46.5137 334.055 45.248C336.375 43.9824 338.238 42.2246 339.645 39.9746C341.051 37.6895 341.754 35.0879 341.754 32.1699Z" fill="white"/>
<path d="M127.935 107V95.1212H132.771C134.038 95.1212 135.147 95.3758 136.097 95.8848C137.059 96.3826 137.805 97.0784 138.337 97.9721C138.869 98.8659 139.135 99.8954 139.135 101.061C139.135 102.226 138.869 103.255 138.337 104.149C137.805 105.043 137.059 105.744 136.097 106.253C135.147 106.751 134.038 107 132.771 107H127.935ZM129.19 105.914H132.703C133.755 105.914 134.666 105.71 135.435 105.303C136.216 104.884 136.821 104.313 137.251 103.589C137.681 102.854 137.896 102.011 137.896 101.061C137.896 100.099 137.681 99.2562 137.251 98.5321C136.821 97.8081 136.216 97.2424 135.435 96.8352C134.666 96.4166 133.755 96.2073 132.703 96.2073H129.19V105.914ZM147.147 107.102C146.253 107.102 145.422 106.955 144.653 106.661C143.895 106.355 143.233 105.931 142.667 105.388C142.113 104.834 141.677 104.194 141.36 103.47C141.055 102.735 140.902 101.932 140.902 101.061C140.902 100.189 141.055 99.3919 141.36 98.6679C141.677 97.9325 142.113 97.2933 142.667 96.7503C143.233 96.196 143.895 95.7717 144.653 95.4776C145.411 95.1721 146.242 95.0194 147.147 95.0194C148.041 95.0194 148.867 95.1721 149.625 95.4776C150.383 95.7717 151.039 96.1903 151.593 96.7333C152.159 97.2764 152.594 97.9156 152.9 98.6509C153.217 99.3863 153.375 100.189 153.375 101.061C153.375 101.932 153.217 102.735 152.9 103.47C152.594 104.206 152.159 104.845 151.593 105.388C151.039 105.931 150.383 106.355 149.625 106.661C148.867 106.955 148.041 107.102 147.147 107.102ZM147.147 105.982C147.86 105.982 148.516 105.863 149.116 105.625C149.727 105.377 150.253 105.032 150.694 104.59C151.146 104.138 151.497 103.617 151.746 103.029C151.995 102.429 152.119 101.773 152.119 101.061C152.119 100.348 151.995 99.6974 151.746 99.1091C151.497 98.5095 151.146 97.9891 150.694 97.5479C150.253 97.0954 149.727 96.7503 149.116 96.5127C148.516 96.2638 147.86 96.1394 147.147 96.1394C146.434 96.1394 145.773 96.2638 145.162 96.5127C144.551 96.7503 144.019 97.0954 143.567 97.5479C143.125 97.9891 142.775 98.5095 142.514 99.1091C142.266 99.6974 142.141 100.348 142.141 101.061C142.141 101.762 142.266 102.413 142.514 103.012C142.775 103.612 143.125 104.138 143.567 104.59C144.019 105.032 144.551 105.377 145.162 105.625C145.773 105.863 146.434 105.982 147.147 105.982ZM158.332 107V96.2073H154.157V95.1212H163.762V96.2073H159.588V107H158.332ZM173.703 107.204C172.752 107.204 171.842 107.079 170.97 106.83C170.099 106.57 169.398 106.236 168.866 105.829L169.8 103.759C170.309 104.121 170.908 104.421 171.598 104.658C172.3 104.884 173.007 104.998 173.72 104.998C174.263 104.998 174.698 104.947 175.026 104.845C175.366 104.732 175.615 104.579 175.773 104.387C175.931 104.194 176.01 103.974 176.01 103.725C176.01 103.408 175.886 103.159 175.637 102.978C175.388 102.786 175.06 102.633 174.653 102.52C174.246 102.396 173.793 102.282 173.295 102.181C172.809 102.067 172.317 101.932 171.819 101.773C171.333 101.615 170.886 101.411 170.478 101.162C170.071 100.914 169.737 100.585 169.477 100.178C169.228 99.7709 169.104 99.2505 169.104 98.617C169.104 97.9382 169.285 97.3216 169.647 96.7673C170.02 96.2016 170.575 95.7547 171.31 95.4267C172.057 95.0873 172.99 94.9176 174.11 94.9176C174.857 94.9176 175.592 95.0081 176.316 95.1891C177.04 95.3588 177.679 95.619 178.234 95.9697L177.385 98.057C176.831 97.7402 176.276 97.5083 175.722 97.3612C175.168 97.2028 174.625 97.1236 174.093 97.1236C173.561 97.1236 173.126 97.1859 172.786 97.3103C172.447 97.4347 172.204 97.5988 172.057 97.8024C171.909 97.9947 171.836 98.221 171.836 98.4812C171.836 98.7867 171.96 99.0356 172.209 99.2279C172.458 99.4089 172.786 99.556 173.194 99.6691C173.601 99.7822 174.048 99.8954 174.534 100.008C175.032 100.122 175.524 100.252 176.01 100.399C176.508 100.546 176.961 100.744 177.368 100.993C177.775 101.242 178.103 101.57 178.352 101.977C178.613 102.384 178.743 102.899 178.743 103.521C178.743 104.189 178.556 104.8 178.183 105.354C177.809 105.908 177.249 106.355 176.503 106.695C175.767 107.034 174.834 107.204 173.703 107.204ZM180.621 107V95.1212H185.763C186.826 95.1212 187.743 95.2966 188.512 95.6473C189.281 95.9867 189.875 96.4788 190.294 97.1236C190.712 97.7685 190.922 98.5378 190.922 99.4315C190.922 100.314 190.712 101.078 190.294 101.722C189.875 102.367 189.281 102.865 188.512 103.216C187.743 103.555 186.826 103.725 185.763 103.725H182.148L183.37 102.486V107H180.621ZM183.37 102.792L182.148 101.485H185.61C186.459 101.485 187.092 101.304 187.511 100.942C187.929 100.58 188.139 100.076 188.139 99.4315C188.139 98.7754 187.929 98.2663 187.511 97.9042C187.092 97.5422 186.459 97.3612 185.61 97.3612H182.148L183.37 96.0545V102.792ZM190.727 107L196.021 95.1212H198.736L204.048 107H201.163L196.819 96.5127H197.905L193.543 107H190.727ZM193.374 104.455L194.103 102.367H200.213L200.959 104.455H193.374ZM210.799 107.204C209.883 107.204 209.029 107.057 208.237 106.762C207.456 106.457 206.777 106.027 206.201 105.473C205.624 104.918 205.171 104.268 204.843 103.521C204.526 102.775 204.368 101.954 204.368 101.061C204.368 100.167 204.526 99.3467 204.843 98.6C205.171 97.8533 205.624 97.2028 206.201 96.6485C206.789 96.0941 207.473 95.6699 208.254 95.3758C209.034 95.0703 209.889 94.9176 210.816 94.9176C211.846 94.9176 212.773 95.0986 213.599 95.4606C214.436 95.8113 215.138 96.3317 215.704 97.0218L213.939 98.6509C213.531 98.1871 213.079 97.842 212.581 97.6158C212.083 97.3782 211.54 97.2594 210.952 97.2594C210.398 97.2594 209.889 97.3499 209.425 97.5309C208.961 97.7119 208.559 97.9721 208.22 98.3115C207.881 98.6509 207.615 99.0525 207.422 99.5164C207.241 99.9802 207.151 100.495 207.151 101.061C207.151 101.626 207.241 102.141 207.422 102.605C207.615 103.069 207.881 103.47 208.22 103.81C208.559 104.149 208.961 104.409 209.425 104.59C209.889 104.771 210.398 104.862 210.952 104.862C211.54 104.862 212.083 104.749 212.581 104.522C213.079 104.285 213.531 103.928 213.939 103.453L215.704 105.082C215.138 105.773 214.436 106.299 213.599 106.661C212.773 107.023 211.84 107.204 210.799 107.204ZM220.088 99.9067H225.807V102.045H220.088V99.9067ZM220.292 104.794H226.758V107H217.56V95.1212H226.537V97.3273H220.292V104.794Z" fill="white"/>
<path d="M52.7783 0C58.8641 0 64.7096 1.03054 70.1494 2.92578C54.6041 5.41218 42.7256 18.8833 42.7256 35.1299C42.7258 53.1429 57.3277 67.7449 75.3398 67.7451C88.8025 67.7451 100.358 59.5872 105.338 47.9453C105.482 49.537 105.558 51.149 105.558 52.7783C105.558 81.9272 81.9272 105.558 52.7783 105.558C48.1945 105.558 43.7473 104.972 39.5068 103.874C47.3088 101.09 52.8935 93.6378 52.8936 84.8799C52.8936 73.7443 43.8654 64.7168 32.7295 64.7168C21.5937 64.7169 12.5664 73.7444 12.5664 84.8799C12.5664 85.6328 12.609 86.3759 12.6895 87.1074C4.77925 77.8785 0 65.8865 0 52.7783C0.000239146 23.6298 23.6298 0.000239177 52.7783 0Z" fill="white"/>
</svg>
